<svg width="25" height="25" viewBox="0 0 25 25" fill="none" xmlns="http://www.w3.org/2000/svg">
<path d="M12.7086 21.7086L12.6086 21.5585C11.9139 20.5165 11.5666 19.9956 11.1077 19.6184C10.7015 19.2845 10.2334 19.034 9.73022 18.8812C9.16187 18.7086 8.53573 18.7086 7.28344 18.7086H5.90862C4.78851 18.7086 4.22846 18.7086 3.80064 18.4906C3.42431 18.2989 3.11835 17.9929 2.92661 17.6166C2.70862 17.1887 2.70862 16.6287 2.70862 15.5086V6.90859C2.70862 5.78848 2.70862 5.22843 2.92661 4.80061C3.11835 4.42428 3.42431 4.11832 3.80064 3.92657C4.22846 3.70859 4.78851 3.70859 5.90862 3.70859H6.30862C8.54883 3.70859 9.66893 3.70859 10.5246 4.14456C11.2772 4.52806 11.8892 5.13998 12.2726 5.89263C12.7086 6.74827 12.7086 7.86838 12.7086 10.1086M12.7086 21.7086V10.1086M12.7086 21.7086L12.8087 21.5585C13.5033 20.5165 13.8506 19.9956 14.3095 19.6184C14.7158 19.2845 15.1839 19.034 15.687 18.8812C16.2554 18.7086 16.8815 18.7086 18.1338 18.7086H19.5086C20.6287 18.7086 21.1888 18.7086 21.6166 18.4906C21.9929 18.2989 22.2989 17.9929 22.4906 17.6166C22.7086 17.1887 22.7086 16.6287 22.7086 15.5086V6.90859C22.7086 5.78848 22.7086 5.22843 22.4906 4.80061C22.2989 4.42428 21.9929 4.11832 21.6166 3.92657C21.1888 3.70859 20.6287 3.70859 19.5086 3.70859H19.1086C16.8684 3.70859 15.7483 3.70859 14.8927 4.14456C14.14 4.52806 13.5281 5.13998 13.1446 5.89263C12.7086 6.74827 12.7086 7.86838 12.7086 10.1086" stroke="#45505E" stroke-width="2" stroke-linecap="round" stroke-linejoin="round"/>
</svg>
