<svg width="33" height="30" viewBox="0 0 33 30" fill="none" xmlns="http://www.w3.org/2000/svg">
<path d="M17.1785 29.6241C17.1968 29.6642 17.1785 29.6953 17.1347 29.6953H16.8902C16.8464 29.6953 16.8281 29.677 16.8026 29.6241L16.4614 28.8796H14.9322L14.5909 29.6241C14.5636 29.677 14.5471 29.6953 14.4979 29.6953H14.2442C14.2041 29.6953 14.1876 29.6642 14.2041 29.6241L15.6329 26.615C15.6548 26.5803 15.6639 26.5547 15.6895 26.5547H15.7022C15.7241 26.5547 15.7387 26.5803 15.7552 26.615L17.1785 29.6241ZM15.6858 27.1533L15.0417 28.5821H16.3427L15.6986 27.1533H15.6858Z" fill="black" stroke="black" stroke-width="0.3"/>
<path d="M17.9351 26.6259C17.9351 26.573 17.9515 26.5547 18.0044 26.5547H18.2143C18.2672 26.5547 18.2799 26.573 18.2799 26.6259V29.5456C18.2799 29.5985 18.2672 29.6168 18.2143 29.6168H18.0044C17.9515 29.6168 17.9351 29.5985 17.9351 29.5456V26.6259Z" fill="black" stroke="black" stroke-width="0.3"/>
<path d="M25.2544 22.9803L28.0422 25.2629C28.0689 25.2806 28.0883 25.3075 28.0966 25.3384C28.0945 25.3707 28.0808 25.4012 28.0581 25.4243L27.7838 25.7622C27.7564 25.796 27.7305 25.8153 27.7065 25.8164C27.6741 25.8148 27.6434 25.8011 27.6206 25.778L25.1857 23.7841L24.1109 25.0961C24.0833 25.1317 24.0576 25.1492 24.0354 25.1505C24.001 25.1488 23.9685 25.1342 23.9443 25.1096L23.6859 24.8988C23.6591 24.8804 23.6399 24.8529 23.6317 24.8215C23.634 24.7892 23.6476 24.7588 23.6701 24.7356L25.0926 22.9999C25.1103 22.9732 25.1372 22.9538 25.1681 22.9455C25.2003 22.9457 25.2311 22.9581 25.2544 22.9803Z" fill="black" stroke="black" stroke-width="0.3"/>
<path d="M28.171 14.173L31.7531 13.808C31.7848 13.8006 31.8182 13.8059 31.8461 13.8226C31.8681 13.8465 31.8805 13.8777 31.8808 13.9102L31.9246 14.3408C31.9311 14.372 31.9259 14.4045 31.91 14.4321C31.8861 14.4541 31.8549 14.4664 31.8224 14.4668L28.691 14.7934L28.8735 16.4814C28.8795 16.5128 28.8736 16.5452 28.8571 16.5726C28.8314 16.5952 28.7983 16.6076 28.764 16.6073L28.4319 16.6419C28.4166 16.6474 28.4001 16.6488 28.384 16.6461C28.3679 16.6434 28.3529 16.6365 28.3402 16.6262C28.3276 16.616 28.3178 16.6026 28.3118 16.5875C28.3058 16.5723 28.3038 16.5559 28.306 16.5397L28.0761 14.3062C28.0724 14.2908 28.0718 14.2748 28.0743 14.2591C28.0768 14.2434 28.0823 14.2284 28.0907 14.2149C28.1116 14.1919 28.1401 14.177 28.171 14.173Z" fill="black" stroke="black" stroke-width="0.3"/>
<path d="M23.6166 6.68248L26.1276 4.10219C26.1479 4.07657 26.1773 4.05961 26.2097 4.05474C26.2417 4.05948 26.2709 4.07569 26.2918 4.10037L28.0527 5.81569C28.0794 5.8365 28.0976 5.86636 28.1038 5.89963C28.0998 5.93187 28.0834 5.96129 28.0582 5.98175L27.8246 6.2208C27.8052 6.24661 27.7763 6.26366 27.7443 6.26825C27.7109 6.26231 27.6806 6.24488 27.6586 6.21898L26.29 4.88686L25.56 5.64051L26.8703 6.91788C26.8975 6.93902 26.9157 6.96965 26.9213 7.00365C26.9213 7.02555 26.9049 7.05474 26.8721 7.08942L26.6403 7.32847C26.6203 7.35357 26.5917 7.37045 26.56 7.37591C26.5263 7.37076 26.4957 7.35318 26.4743 7.32664L25.1641 6.04927L24.4104 6.82117L25.779 8.15511C25.8137 8.18796 25.8319 8.21533 25.8319 8.23905C25.8268 8.27278 25.8092 8.30337 25.7827 8.32482L25.5491 8.56387C25.5396 8.57679 25.5276 8.58766 25.5138 8.59581C25.5 8.60397 25.4847 8.60924 25.4688 8.61131C25.4451 8.61131 25.4177 8.59671 25.383 8.56387L23.6221 6.84854C23.588 6.81569 23.5716 6.78832 23.5728 6.76642C23.5765 6.73397 23.5921 6.70405 23.6166 6.68248Z" fill="black" stroke="black" stroke-width="0.3"/>
<path d="M15.2353 4.17524L13.8411 0.469041C13.8229 0.42342 13.8174 0.394223 13.8284 0.3778C13.8393 0.361377 13.8612 0.354076 13.9014 0.354076H14.4269C14.4619 0.353405 14.4961 0.364578 14.5239 0.385779C14.5517 0.40698 14.5716 0.436964 14.5802 0.470865L15.3977 2.88875L16.2882 0.417946C16.3211 0.341304 16.3539 0.302982 16.3831 0.304807H16.4598C16.489 0.304807 16.5181 0.344953 16.551 0.421595L17.3831 2.91065L18.2608 0.512836C18.2696 0.47896 18.2899 0.449177 18.3182 0.428551C18.3465 0.407925 18.381 0.397729 18.416 0.399697H18.9415C18.9816 0.399697 19.0054 0.408821 19.0145 0.425244C19.0236 0.441667 19.0145 0.470866 18.9999 0.514661L17.5127 4.19349C17.478 4.26648 17.4506 4.30298 17.4287 4.30298H17.3831C17.3612 4.30298 17.3338 4.26648 17.3028 4.19349L16.4141 1.57123L15.4543 4.17524C15.4196 4.24641 15.3922 4.28291 15.3703 4.28291H15.3211C15.3028 4.27743 15.2736 4.23911 15.2353 4.17524Z" fill="black" stroke="black" stroke-width="0.3"/>
<path d="M6.34876 8.98221L4.08781 5.96761C4.08306 5.96317 4.07927 5.9578 4.07668 5.95184C4.07409 5.94588 4.07275 5.93944 4.07275 5.93294C4.07275 5.92644 4.07409 5.92 4.07668 5.91404C4.07927 5.90808 4.08306 5.90271 4.08781 5.89827L4.11518 5.8709C4.12767 5.86369 4.14183 5.85989 4.15624 5.85989C4.17066 5.85989 4.18482 5.86369 4.1973 5.8709L7.52029 6.7833L6.74656 3.42747C6.7412 3.41388 6.73955 3.39911 6.7418 3.38467C6.74404 3.37024 6.7501 3.35666 6.75934 3.34535L6.78854 3.3198C6.79298 3.31505 6.79834 3.31126 6.80431 3.30867C6.81027 3.30608 6.8167 3.30474 6.82321 3.30474C6.82971 3.30474 6.83614 3.30608 6.84211 3.30867C6.84807 3.31126 6.85344 3.31505 6.85788 3.3198L9.77758 5.69207C9.83962 5.73951 9.8378 5.79425 9.77758 5.85447L9.46554 6.15374C9.43269 6.18416 9.40715 6.19876 9.3889 6.19754C9.35692 6.1898 9.32742 6.17411 9.30313 6.15192L7.59145 4.69754L8.23379 7.27601C8.24839 7.36846 8.24474 7.42503 8.22284 7.44571L8.1827 7.48404C8.15958 7.50715 8.10301 7.50715 8.01299 7.48404L5.48379 6.74134L6.83416 8.51688C6.8561 8.54226 6.87062 8.5732 6.87613 8.6063C6.87083 8.63702 6.85382 8.6645 6.82868 8.68294L6.51664 8.98403C6.44182 9.05155 6.3889 9.04973 6.34876 8.98221Z" fill="black" stroke="black" stroke-width="0.3"/>
<path d="M4.75111 17.7155L1.17083 15.6662L1.11973 15.6297C1.10408 15.6196 1.08942 15.608 1.07594 15.5951C1.07384 15.5908 1.07275 15.5861 1.07275 15.5814C1.07275 15.5766 1.07384 15.5719 1.07594 15.5677V15.5513C1.07594 15.5221 1.11426 15.491 1.1909 15.4582L4.97739 13.8159C4.98919 13.8086 5.00277 13.8047 5.01662 13.8047C5.03048 13.8047 5.04406 13.8086 5.05586 13.8159C5.06735 13.8239 5.07635 13.835 5.08183 13.8479C5.08732 13.8608 5.08907 13.875 5.08688 13.8888L5.0595 14.3961C5.05641 14.4302 5.04308 14.4626 5.02126 14.489C4.99944 14.5154 4.97015 14.5345 4.93724 14.544L4.169 14.8578L4.07411 16.5859L4.80403 16.9819C4.83773 16.9995 4.86801 17.023 4.89345 17.0513C4.90944 17.0782 4.91587 17.1097 4.9117 17.1407L4.8825 17.6498C4.88311 17.6638 4.87975 17.6778 4.8728 17.69C4.86586 17.7022 4.85561 17.7123 4.84322 17.7189C4.83084 17.7256 4.81683 17.7286 4.8028 17.7277C4.78876 17.7268 4.77528 17.7219 4.76389 17.7137L4.75111 17.7155ZM2.18542 15.6224L3.51206 16.3268L3.58141 15.0494L2.18542 15.6078V15.6224Z" fill="black" stroke="black" stroke-width="0.3"/>
<path d="M8.86654 25.7465L8.54903 25.783C8.49063 25.7957 8.45048 25.783 8.43041 25.7647C8.41693 25.7427 8.40939 25.7175 8.40851 25.6917C8.37551 25.2918 8.22433 24.9107 7.97421 24.5968C7.63479 24.1564 7.32093 24.0488 7.03261 24.2738C6.96758 24.3188 6.91707 24.3818 6.88725 24.4551C6.85744 24.5283 6.84961 24.6086 6.86472 24.6863C6.92808 24.9404 7.03355 25.1822 7.17676 25.4016C7.33618 25.6583 7.4446 25.9433 7.49611 26.241C7.51726 26.3964 7.49425 26.5546 7.42971 26.6976C7.36517 26.8406 7.2617 26.9625 7.13114 27.0494C6.90248 27.2202 6.62031 27.3037 6.33553 27.2848C5.97056 27.2702 5.6275 27.0658 5.3191 26.6662C5.17043 26.4827 5.05383 26.2754 4.97421 26.053C4.89776 25.824 4.84696 25.5871 4.82275 25.3468C4.82275 25.2811 4.85013 25.241 4.93224 25.2282L5.24976 25.1917C5.30937 25.1808 5.34952 25.1881 5.3702 25.2136C5.38251 25.2346 5.38882 25.2586 5.38845 25.283C5.40592 25.6396 5.52986 25.9828 5.74428 26.2684C5.86585 26.4641 6.05572 26.6078 6.27713 26.6717C6.35526 26.6851 6.43534 26.6818 6.5121 26.662C6.58885 26.6421 6.66053 26.6063 6.72238 26.5567C6.79099 26.5092 6.84127 26.4397 6.86484 26.3597C6.88841 26.2797 6.88386 26.194 6.85195 26.1169C6.77469 25.8977 6.67437 25.6872 6.55268 25.4892C6.3818 25.223 6.26866 24.924 6.22056 24.6114C6.20376 24.4503 6.23206 24.2877 6.3023 24.1417C6.37255 23.9958 6.48198 23.8722 6.61837 23.7848C6.74062 23.6882 6.88255 23.6195 7.03419 23.5835C7.18582 23.5476 7.34349 23.5453 7.49611 23.5768C7.86781 23.6595 8.19405 23.8807 8.40851 24.1954C8.7465 24.5993 8.94944 25.099 8.9888 25.6242C8.98698 25.6917 8.94866 25.7319 8.86654 25.7465Z" fill="black" stroke="black" stroke-width="0.3"/>
<path d="M18.5786 11.7947V13.2058C18.5821 13.4662 18.6849 13.7154 18.866 13.9025C19.057 14.0775 19.3038 14.1793 19.5627 14.1899C19.8231 14.1898 20.073 14.0865 20.2574 13.9025C20.439 13.7156 20.5425 13.4664 20.5467 13.2058V11.7947C20.543 11.5346 20.4394 11.2858 20.2574 11.1C20.0676 10.924 19.8213 10.8214 19.5627 10.8107C19.3015 10.8122 19.0514 10.9161 18.866 11.1C18.6852 11.2865 18.5824 11.535 18.5786 11.7947Z" fill="black"/>
<path d="M12.3228 11.7947V13.2058C12.3262 13.4662 12.429 13.7154 12.6101 13.9025C12.6971 13.9942 12.8062 14.0619 12.927 14.0993C13.0435 14.1616 13.1748 14.1909 13.3068 14.1839C13.5677 14.1833 13.818 14.0801 14.0035 13.8966C14.1839 13.709 14.2866 13.4601 14.2908 13.1999V11.7888C14.2871 11.5291 14.1843 11.2806 14.0035 11.0941C13.8133 10.9175 13.5661 10.8149 13.3068 10.8047C13.0458 10.8071 12.796 10.9109 12.6101 11.0941C12.4301 11.2811 12.3275 11.5293 12.3228 11.7888V11.7947Z" fill="black"/>
<path d="M13.0643 17.7953C13.7712 18.284 14.5779 18.6094 15.426 18.7478C16.7276 19.0044 18.0781 18.7836 19.2303 18.1259C19.4889 17.9789 19.7288 17.8011 19.9447 17.5965C20.0612 17.4543 20.1203 17.2738 20.1107 17.0902C20.1011 16.9067 20.0233 16.7333 19.8926 16.6041C19.7619 16.4749 19.5877 16.3991 19.404 16.3915C19.2204 16.384 19.0405 16.4452 18.8997 16.5633L18.8544 16.6046C18.8345 16.6199 18.8154 16.6364 18.7973 16.6538C18.6792 16.7581 18.8249 16.6026 18.8446 16.6184C18.8642 16.6341 18.3722 16.9254 18.3388 16.9451L18.1557 17.0396C18.1223 17.0553 17.8959 17.1478 18.0731 17.0789C17.9353 17.1321 17.7975 17.1832 17.6578 17.2246C17.33 17.3317 16.9872 17.3862 16.6423 17.3859C16.4327 17.3899 16.2231 17.382 16.0145 17.3623C15.92 17.3623 15.9062 17.3505 15.9712 17.3623L15.8157 17.3367C15.7153 17.319 15.6189 17.2974 15.5185 17.2757C15.3551 17.2364 15.1957 17.1911 15.0383 17.1399C14.9537 17.1124 14.871 17.0828 14.7883 17.0514C14.7569 17.0396 14.5108 16.9333 14.684 17.012C14.3788 16.8813 14.0874 16.7204 13.8141 16.5318C13.4933 16.2956 12.9895 16.4786 12.8045 16.7955C12.7101 16.9657 12.6849 17.1657 12.734 17.3541C12.7831 17.5424 12.9028 17.7046 13.0682 17.8071L13.0643 17.7953Z" fill="black"/>
</svg>
